# xmcd
#
# Track frame offsets: 
#        150
#        20975
#        33115
#        50566
#        67165
#        85767
#        105420
#        128026
#        146252
#        161951
#        171961
#        178943
#        186036
#
# Disc length: 2943 seconds
#
# Revision: 0
# Processed by: cddbd v1.5.2PL0 Copyright (c) Steve Scherf et al.
# Submitted via: ExactAudioCopyFreeDBPlugin 1.0
#
DISCID=b50b7d0d
DTITLE=I See Hawks in L.A. - Mystery Drug
DYEAR=2013
DGENRE=Country
TTITLE0=Oklahoma's Going Dry
TTITLE1=Mystery Drug
TTITLE2=Yesterday's Coffee
TTITLE3=The Beauty of the Better States
TTITLE4=We Could All Be in Laughlin Tonight
TTITLE5=One Drop of Human Blood
TTITLE6=Sky Island
TTITLE7=If You Remind Me
TTITLE8=Rock N Roll Cymbal From the Seventies
TTITLE9=Tongues of the Flame
TTITLE10=Stop Driving Like an Asshole
TTITLE11=My Local Merchants
TTITLE12=The River Knows
EXTD=
EXTT0=
EXTT1=
EXTT2=
EXTT3=
EXTT4=
EXTT5=
EXTT6=
EXTT7=
EXTT8=
EXTT9=
EXTT10=
EXTT11=
EXTT12=
PLAYORDER=
